<svg width="236" height="236" viewBox="0 0 236 236" fill="none" xmlns="http://www.w3.org/2000/svg">
<g clip-path="url(#clip0_38_57)">
<path d="M68.8333 236H49.1667C22.0562 236 0 213.944 0 186.833V167.167C0 161.729 4.3955 157.333 9.83333 157.333C15.2712 157.333 19.6667 161.729 19.6667 167.167V186.833C19.6667 203.098 32.9023 216.333 49.1667 216.333H68.8333C74.2712 216.333 78.6667 220.729 78.6667 226.167C78.6667 231.604 74.2712 236 68.8333 236ZM236 186.833V167.167C236 161.729 231.604 157.333 226.167 157.333C220.729 157.333 216.333 161.729 216.333 167.167V186.833C216.333 203.098 203.098 216.333 186.833 216.333H167.167C161.729 216.333 157.333 220.729 157.333 226.167C157.333 231.604 161.729 236 167.167 236H186.833C213.944 236 236 213.944 236 186.833ZM236 68.8333V49.1667C236 22.0562 213.944 0 186.833 0H167.167C161.729 0 157.333 4.3955 157.333 9.83333C157.333 15.2712 161.729 19.6667 167.167 19.6667H186.833C203.098 19.6667 216.333 32.9023 216.333 49.1667V68.8333C216.333 74.2712 220.729 78.6667 226.167 78.6667C231.604 78.6667 236 74.2712 236 68.8333ZM19.6667 68.8333V49.1667C19.6667 32.9023 32.9023 19.6667 49.1667 19.6667H68.8333C74.2712 19.6667 78.6667 15.2712 78.6667 9.83333C78.6667 4.3955 74.2712 0 68.8333 0H49.1667C22.0562 0 0 22.0562 0 49.1667V68.8333C0 74.2712 4.3955 78.6667 9.83333 78.6667C15.2712 78.6667 19.6667 74.2712 19.6667 68.8333ZM177 98.3333V137.667C177 153.931 163.764 167.167 147.5 167.167H88.5C72.2357 167.167 59 153.931 59 137.667V98.3333C59 82.2165 71.9898 69.089 88.0378 68.8432L94.8818 58.1937C98.5005 52.5493 104.686 49.1667 111.422 49.1667H124.578C131.314 49.1667 137.49 52.5493 141.128 58.2035L147.962 68.8432C164.02 69.089 177 82.2165 177 98.3333ZM137.667 118C137.667 107.134 128.866 98.3333 118 98.3333C107.134 98.3333 98.3333 107.134 98.3333 118C98.3333 128.866 107.134 137.667 118 137.667C128.866 137.667 137.667 128.866 137.667 118Z" fill="#898989"/>
</g>
<defs>
<clipPath id="clip0_38_57">
<rect width="236" height="236" fill="white"/>
</clipPath>
</defs>
</svg>
